<svg width="41" height="40" viewBox="0 0 41 40" fill="none" xmlns="http://www.w3.org/2000/svg">
<path d="M19.875 27.3437C20.0639 27.4517 20.2777 27.5085 20.4953 27.5085C20.7129 27.5085 20.9267 27.4517 21.1156 27.3437C21.4984 27.1234 30.4906 21.875 30.4906 12.5078C30.4121 9.90984 29.3251 7.44453 27.46 5.63427C25.5949 3.824 23.0983 2.81104 20.4991 2.81003C17.8999 2.80901 15.4025 3.82002 13.536 5.62882C11.6695 7.43763 10.5806 9.90209 10.5 12.5C10.5 21.875 19.4969 27.1156 19.875 27.3437ZM20.5 8.75C21.2417 8.75 21.9667 8.96993 22.5834 9.38199C23.2001 9.79404 23.6807 10.3797 23.9645 11.0649C24.2484 11.7502 24.3226 12.5042 24.1779 13.2316C24.0333 13.959 23.6761 14.6272 23.1517 15.1516C22.6272 15.6761 21.959 16.0332 21.2316 16.1779C20.5042 16.3226 19.7502 16.2484 19.0649 15.9645C18.3797 15.6807 17.794 15.2001 17.382 14.5834C16.9699 13.9667 16.75 13.2417 16.75 12.5C16.75 11.5054 17.1451 10.5516 17.8483 9.84835C18.5516 9.14508 19.5054 8.75 20.5 8.75ZM38 28.75C38 33.6219 28.9828 36.25 20.5 36.25C12.0172 36.25 3 33.6219 3 28.75C3 26.4703 5.06562 24.4516 8.81719 23.0672C9.12484 22.9655 9.45994 22.9873 9.75184 23.128C10.0437 23.2686 10.2696 23.5171 10.3819 23.821C10.4941 24.125 10.484 24.4606 10.3536 24.7572C10.2232 25.0538 9.98267 25.2882 9.68281 25.4109C7.10313 26.3656 5.5 27.6437 5.5 28.75C5.5 30.8375 11.2063 33.75 20.5 33.75C29.7938 33.75 35.5 30.8375 35.5 28.75C35.5 27.6437 33.8969 26.3656 31.3172 25.4125C31.0173 25.2898 30.7768 25.0554 30.6464 24.7588C30.516 24.4622 30.5059 24.1265 30.6181 23.8226C30.7304 23.5186 30.9563 23.2702 31.2482 23.1295C31.5401 22.9889 31.8752 22.9671 32.1828 23.0687C35.9344 24.4516 38 26.4703 38 28.75Z" fill="#F67600"/>
</svg>
